<?xml version="1.0" encoding="UTF-8"?>
<svg id="Layer_2" data-name="Layer 2" xmlns="http://www.w3.org/2000/svg" viewBox="0 0 830.32 78.78">
  <defs>
    <style>
      .cls-1, .cls-2 {
        stroke-width: 0px;
      }

      .cls-2 {
        fill: #f73727;
      }
    </style>
  </defs>
  <g id="LOGO">
    <g>
      <path class="cls-2" d="m605.7,52.41c0,13.18,10.68,23.86,23.86,23.86h57.45v-19.18h-57.45c-2.6,0-4.72-2.08-4.72-4.69s2.12-4.69,4.72-4.69h57.45v-19.18h-57.45c-2.6,0-4.72-2.08-4.72-4.69s2.12-4.69,4.72-4.69h57.45V0h-57.45c-13.18,0-23.86,10.68-23.86,23.86,0,5.36,1.79,10.29,4.77,14.27-2.98,3.98-4.77,8.91-4.77,14.27Z"/>
      <path class="cls-1" d="m222.56,52.41c0,13.18,10.68,23.86,23.86,23.86h57.45v-19.18h-57.45c-2.6,0-4.72-2.08-4.72-4.69s2.12-4.69,4.72-4.69h57.45v-19.18h-57.45c-2.6,0-4.72-2.08-4.72-4.69s2.12-4.69,4.72-4.69h57.45V0h-57.45C233.24,0,222.56,10.68,222.56,23.86c0,5.36,1.79,10.29,4.77,14.27-2.98,3.98-4.77,8.91-4.77,14.27Z"/>
      <polygon class="cls-1" points="190.47 0 147.47 47.67 147.47 0 120.89 0 120.89 76.27 121.67 76.27 147.47 76.27 153.97 76.27 222.88 0 190.47 0"/>
      <path class="cls-1" d="m75.51,55.9v20.38H0V0h26.59v55.9h48.92Z"/>
      <path class="cls-1" d="m84.24,76.27V0h26.59v76.27h-26.59Z"/>
      <path class="cls-2" d="m400.58,20.16h-30.18v56.12h-26.59V20.16h-30.07V0h86.84v20.16Z"/>
      <path class="cls-2" d="m501.12,0v40.32c0,23.54-16.34,38.46-45.55,38.46s-45.65-14.93-45.65-38.46V0h26.59v38.25c0,11.33,5.88,19.51,19.07,19.51s18.96-8.17,18.96-19.51V0h26.59Z"/>
      <path class="cls-2" d="m818.72,63.42l-20.35-22.57c-1.44-1.59-1.43-4.01,0-5.6l20.28-22.45c4.08-4.52,11.59-1.64,11.6,4.45l.07,41.7c.01,6.1-7.51,9-11.6,4.47Z"/>
      <polygon class="cls-1" points="799.85 76.27 765.36 38.03 799.71 0 769.86 0 750.46 21.51 731.05 0 701.2 0 735.55 38.03 701.06 76.27 730.81 76.27 750.46 54.53 770.1 76.27 799.85 76.27"/>
      <path class="cls-2" d="m594.71,23.86C594.71,10.68,584.02,0,570.85,0h-57.45v19.18h57.45c2.6,0,4.72,2.08,4.72,4.69s-2.12,4.69-4.72,4.69h-57.45v19.18h57.45c2.6,0,4.72,2.08,4.72,4.69s-2.12,4.69-4.72,4.69h-57.45v19.18h57.45c13.18,0,23.86-10.68,23.86-23.86,0-5.36-1.79-10.29-4.77-14.27,2.98-3.98,4.77-8.91,4.77-14.27Z"/>
    </g>
  </g>
</svg>